<?xml version="1.0" encoding="utf-8"?>
<!-- Generator: Adobe Illustrator 16.0.0, SVG Export Plug-In . SVG Version: 6.00 Build 0)  -->
<!DOCTYPE svg PUBLIC "-//W3C//DTD SVG 1.1//EN" "http://www.w3.org/Graphics/SVG/1.1/DTD/svg11.dtd">
<svg version="1.1" id="图层_3" xmlns="http://www.w3.org/2000/svg" xmlns:xlink="http://www.w3.org/1999/xlink" x="0px" y="0px"
	 width="192px" height="192px" viewBox="0 0 192 192" enable-background="new 0 0 192 192" xml:space="preserve">
<g id="kity_g_4">
</g>
<path id="kity_path_5" display="none" d="M11.725,78.485h1.401v86.863h-1.401V78.485z"/>
<g id="kity_g_98">
	<g id="kity_g_100">
		<path id="kity_path_101" fill="none" d="M70.28,50.465L70.28,50.465L70.28,50.465L70.28,50.465z"/>
		<g id="kity_g_102">
		</g>
	</g>
</g>
<g id="kity_g_84" transform="matrix( 0.66 0 0 0.66 0 0 )">
	<path id="kity_path_85" d="M-148.884,90.262L-148.884,90.262L-148.884,90.262L-148.884,90.262z"/>
	<g id="kity_g_86">
	</g>
</g>
<path fill="#4285F4" d="M160.75,20H31.25C25.034,20,20,25.035,20,31.25v129.5c0,6.216,5.034,11.25,11.25,11.25h129.5
	c6.216,0,11.25-5.034,11.25-11.25V31.25C172,25.035,166.966,20,160.75,20z"/>
<path fill="#FCFCFC" d="M52.705,97.107c0-9.14,7.43-16.57,16.57-16.57h21.379V70.382H69.275c-14.753,0-26.726,11.973-26.726,26.726
	c0,14.752,11.973,26.725,26.726,26.725h21.379v-10.155H69.275C60.135,113.677,52.705,106.247,52.705,97.107z M74.62,102.452h42.76
	v-10.69H74.62V102.452z M122.725,70.382h-21.379v10.155h21.379c9.14,0,16.57,7.431,16.57,16.57s-7.431,16.569-16.57,16.569h-21.379
	v10.155h21.379c14.753,0,26.726-11.973,26.726-26.725C149.45,82.355,137.478,70.382,122.725,70.382z"/>
</svg>
